<?xml version="1.0" encoding="UTF-8" standalone="no"?><!DOCTYPE svg PUBLIC "-//W3C//DTD SVG 1.1//EN" "http://www.w3.org/Graphics/SVG/1.1/DTD/svg11.dtd"><svg width="100%" height="100%" viewBox="0 0 4000 4000" version="1.1" xmlns="http://www.w3.org/2000/svg" xmlns:xlink="http://www.w3.org/1999/xlink" xml:space="preserve" xmlns:serif="http://www.serif.com/" style="fill-rule:evenodd;clip-rule:evenodd;stroke-linejoin:round;stroke-miterlimit:2;"><circle cx="2000" cy="2000" r="2000" style="fill:#526cee;fill-opacity:0;"/><clipPath id="_clip1"><circle cx="2000" cy="2000" r="2000"/></clipPath><g clip-path="url(#_clip1)"><rect x="0" y="0" width="4000" height="4000" style="fill:#404040;"/><path d="M1841.3,2158.7c-45.612,-42.501 -71.547,-102.118 -71.547,-164.462c-0,-123.319 101.476,-224.795 224.794,-224.795c62.345,0 121.961,25.936 164.463,71.547c38.761,41.598 60.332,96.39 60.332,153.248c0,123.319 -101.476,224.795 -224.795,224.795c-56.857,-0 -111.65,-21.572 -153.247,-60.333Zm-848.076,-1165.49l212.057,212.057c-435.939,435.988 -435.939,1153.46 -0,1589.45l-212.057,212.057c-266.937,-266.899 -417.065,-629.301 -417.065,-1006.78c0,-377.48 150.128,-739.882 417.065,-1006.78Zm2013.56,0c266.937,266.899 417.065,629.301 417.065,1006.78c-0,377.48 -150.128,739.882 -417.065,1006.78l-212.057,-212.057c435.939,-435.988 435.939,-1153.46 0,-1589.45l212.057,-212.057Zm-1589.6,423.813l211.907,211.907c-98.341,98.33 -153.648,231.844 -153.648,370.911c0,139.068 55.307,272.581 153.648,370.911l-211.907,211.907c-319.714,-319.729 -319.714,-845.907 0,-1165.64Zm1165.64,0c319.714,319.729 319.714,845.907 -0,1165.64l-211.907,-211.907c98.341,-98.33 153.648,-231.843 153.648,-370.911c-0,-139.067 -55.307,-272.581 -153.648,-370.911l211.907,-211.907Z" style="fill:#526cee;fill-rule:nonzero;"/></g></svg>